# AST/ASF file generated using VICON BodyLanguage
# -----------------------------------------------
:version 1.10
:name VICON
:units
  mass 1.0
  length 0.45
  angle deg
:documentation
   .ast/.asf automatically generated from VICON data using
   VICON BodyBuilder and BodyLanguage model FoxedUp or BRILLIANT.MOD
:root
   order TX TY TZ RX RY RZ
   axis XYZ
   position 0 0 0  
   orientation 0 0 0 
:bonedata
  begin
     id 1 
     name lhipjoint
     direction 0.577973 -0.728611 0.367523 
     length 2.48544 
     axis 0 0 0  XYZ
  end
  begin
     id 2 
     name lfemur
     direction 0.34202 -0.939693 0  
     length 7.1921  
     axis 0 0 20  XYZ
    dof rx ry rz
    limits (-160.0 20.0)
           (-70.0 70.0)
           (-60.0 70.0)
  end
  begin
     id 3 
     name ltibia
     direction 0.34202 -0.939693 0   
     length 7.71059   
     axis 0 0 20   XYZ
    dof rx
    limits (-10.0 170.0)
  end
  begin
     id 4 
     name lfoot
     direction 0.089538 -0.246004 0.965124   
     length 2.19909   
     axis -90 7.62852e-016 20   XYZ
    dof rx rz
    limits (-45.0 90.0)
           (-70.0 20.0)
  end
  begin
     id 5 
     name ltoes
     direction 1.53544e-011 -4.21829e-011 1   
     length 1.10116   
     axis -90 7.62852e-016 20   XYZ
    dof rx
    limits (-90.0 20.0)
  end
  begin
     id 6 
     name rhipjoint
     direction -0.554414 -0.743062 0.374812   
     length 2.4371  
     axis 0 0 0  XYZ 
  end
  begin
     id 7 
     name rfemur
     direction -0.34202 -0.939693 0   
     length 7.47254   
     axis 0 0 -20   XYZ
    dof rx ry rz
    limits (-160.0 20.0)
           (-70.0 70.0)
           (-70.0 60.0)
  end
  begin
     id 8 
     name rtibia
     direction -0.34202 -0.939693 0   
     length 7.65855   
     axis 0 0 -20   XYZ
    dof rx
    limits (-10.0 170.0)
 end
 begin
     id 9 
     name rfoot
     direction -0.133779 -0.367555 0.92033   
     length 2.43006  
     axis -90 -7.62852e-016 -20   XYZ
    dof rx rz
    limits (-45.0 90.0)
           (-20.0 70.0)
  end
  begin
     id 10 
     name rtoes
     direction -1.53563e-011 -4.21889e-011 1   
     length 1.19625   
     axis -90 -7.62852e-016 -20   XYZ
    dof rx
    limits (-90.0 20.0)
  end
  begin
     id 11 
     name lowerback
     direction 0.0249066 0.998043 -0.0573585   
     length 2.08485   
     axis 0 0 0   XYZ
    dof rx ry rz
    limits (-20.0 45.0)
           (-30.0 30.0)
           (-30.0 30.0)
  end
  begin
     id 12 
     name upperback
     direction 0.0237884 0.999673 0.00943178   
     length 2.08515   
     axis 0 0 0   XYZ
    dof rx ry rz
    limits (-20.0 45.0)
           (-30.0 30.0)
           (-30.0 30.0)
  end
  begin
     id 13 
     name thorax
     direction 0.0106671 0.999301 0.0358174   
     length 2.09037   
     axis 0 0 0   XYZ
    dof rx ry rz
    limits (-20.0 45.0)
           (-30.0 30.0)
           (-30.0 30.0)
  end
  begin
     id 14 
     name lowerneck
     direction -0.0580016 0.987052 0.149546   
     length 1.84454   
     axis 0 0 0   XYZ
    dof rx ry rz
    limits (-20.0 45.0)
           (-30.0 30.0)
           (-30.0 30.0)
  end
  begin
     id 15 
     name upperneck
     direction 0.079456 0.981963 -0.171567   
     length 1.88141   
     axis 0 0 0   XYZ
    dof rx ry rz
    limits (-20.0 45.0)
           (-30.0 30.0)
           (-30.0 30.0)
  end
  begin
     id 16
     name head
     direction 0.0262167 0.9967 -0.0768276  
     length 1.89541  
     axis 0 0 0   XYZ
    dof rx ry rz
    limits (-20.0 45.0)
           (-30.0 30.0)
           (-30.0 30.0)
  end
  begin
     id 17 
     name lclavicle
     direction 0.946135 0.322134 -0.0325326  
     length 3.949  
     axis 0 0 0   XYZ
    dof ry rz
    limits (-20.0 10.0)
           (0.0 20.0)
  end
  begin
     id 18 
     name lhumerus
     direction 1 -4.48964e-011 1.94005e-028   
     length 5.10995   
     axis 180 -30 -90   XYZ
    dof rx ry rz
    limits (-60.0 90.0)
           (-90.0 90.0)
           (-90.0 90.0)
  end
  begin
     id 19
     name lradius
     direction 1 -4.48976e-011 2.87852e-027   
     length 3.21207   
     axis 180 -30 -90   XYZ
    dof rx
    limits (-10.0 170.0)
  end
  begin
     id 20
     name lwrist
     direction 1 -4.48963e-011 1.9975e-027   
     length 1.60604   
     axis 2.96054e-016 90 90   XYZ
    dof ry
    limits (-180.0 0.0)
 end
  begin
     id 21 
     name lhand
     direction 1 -4.48919e-011 4.00227e-027   
     length 0.63349   
     axis -2.5488e-015 90 90   XYZ
    dof rx rz
    limits (-90.0 90.0)
           (-45.0 45.0)
  end
  begin
     id 22 
     name lfingers
     direction 1 -4.49037e-011 7.9652e-027   
     length 0.510736   
     axis -5.0975e-015 90 90   XYZ
    dof rx
    limits (0.0 90.0)
  end
  begin
     id 23
     name lthumb
     direction 0.707107 -6.34922e-011 0.707107   
     length 0.733318   
     axis -90 45 -4.48553e-014   XYZ
    dof rx rz
    limits (-45.0 45.0)
           (-45.0 45.0)
  end
  begin
     id 24 
     name rclavicle
     direction -0.940085 0.328911 -0.0897654   
     length 3.93848  
     axis 0 0 0   XYZ 
    dof ry rz
    limits (-10.0 20.0)
           (-20.0 0.0)
  end
  begin
     id 25 
     name rhumerus
     direction -1 -4.48958e-011 3.02044e-027  
     length 5.25109   
     axis 180 30 90   XYZ
    dof rx ry rz
    limits (-90.0 60.0)
           (-90.0 90.0)
           (-90.0 90.0)
  end
  begin
     id 26 
     name rradius
     direction -1 -4.4897e-011 9.78352e-028   
     length 3.28364   
     axis 180 30 90   XYZ
    dof rx
    limits (-10.0 170.0)
  end
  begin
     id 27 
     name rwrist
     direction -1 -4.48943e-011 1.99918e-027   
     length 1.64182   
     axis 2.96054e-016 -90 -90   XYZ
    dof ry
    limits (-180.0 0.0)
  end
  begin
     id 28
     name rhand
     direction -1 -4.49024e-011 3.98478e-027   
     length 0.599745   
     axis -2.5488e-015 -90 -90   XYZ
    dof rx rz
    limits (-90.0 90.0)
           (-45.0 45.0)
  end
  begin
     id 29
     name rfingers
     direction -1 -4.48914e-011 8.00621e-027   
     length 0.48353   
     axis -5.0975e-015 -90 -90   XYZ
    dof rx
    limits (0.0 90.0)
  end
  begin
     id 30
     name rthumb
     direction -0.707107 -6.34992e-011 0.707107   
     length 0.694255   
     axis -90 -45 4.48553e-014   XYZ
    dof rx rz
    limits (-45.0 45.0)
           (-45.0 45.0)
  end
:hierarchy
  begin
    root lhipjoint rhipjoint lowerback
    lhipjoint lfemur
    lfemur ltibia
    ltibia lfoot
    lfoot ltoes
    rhipjoint rfemur
    rfemur rtibia
    rtibia rfoot
    rfoot rtoes
    lowerback upperback
    upperback thorax
    thorax lowerneck lclavicle rclavicle
    lowerneck upperneck
    upperneck head
    lclavicle lhumerus
    lhumerus lradius
    lradius lwrist
    lwrist lhand lthumb
    lhand lfingers
    rclavicle rhumerus
    rhumerus rradius
    rradius rwrist
    rwrist rhand rthumb
    rhand rfingers
  end

#!OML:ASF E:\CV Data\Top Level 1\Subject 1\Session 1\player.ASF
:FULLY-SPECIFIED
:DEGREES
330
root 7.67803 16.5444 -7.65527 72.6679 -80.9911 -86.8763
lowerback 22.4258 0.128645 7.32532
upperback 7.98925 1.26428 4.96897
thorax -3.65927 0.327092 0.897589
lowerneck -19.2731 13.898 -4.76021
upperneck 16.6302 19.339 4.65431
head 7.2745 9.39955 4.34323
rclavicle 6.75868e-015 1.90833e-014
rhumerus -14.2774 -17.8622 -80.5964
rradius 27.6348
rwrist -16.999
rhand -33.4361 19.8954
rfingers 7.12502
rthumb -6.63524 -9.98065
lclavicle 6.75868e-015 1.90833e-014
lhumerus 24.3326 -24.1597 29.6455
lradius 22.4809
lwrist -23.5937
lhand -18.3013 0.107746
lfingers 7.12502
lthumb 7.97952 29.9371
rfemur -6.79845 1.18645 28.8059
rtibia 44.8995
rfoot -22.4421 -6.31717
rtoes -3.3964
lfemur -68.1348 16.6021 -13.5205
ltibia 24.6349
lfoot -8.72517 9.52003
ltoes -15.8596
331
root 7.66065 16.5762 -7.60774 69.5255 -80.8562 -83.243
lowerback 22.677 0.169856 7.2278
upperback 8.09634 1.30589 4.98084
thorax -3.67068 0.342984 0.955402
lowerneck -19.4237 13.8249 -4.7846
upperneck 16.123 19.2816 4.42255
head 7.15847 9.36481 4.25179
rclavicle -1.07344e-014 -3.10104e-014
rhumerus -15.2579 -20.6343 -78.5533
rradius 26.7751
rwrist -17.1758
rhand -33.2198 19.7428
rfingers 7.12502
rthumb -6.42645 -10.1397
lclavicle -1.07344e-014 -3.10104e-014
lhumerus 23.4607 -24.3307 27.4282
lradius 22.485
lwrist -22.2863
lhand -17.5371 1.07827
lfingers 7.12502
lthumb 8.71709 30.8783
rfemur -6.9882 0.993275 28.6104
rtibia 44.4647
rfoot -22.2595 -6.57104
rtoes -3.59572
lfemur -68.4314 16.6175 -13.4864
ltibia 24.6748
lfoot -8.65544 9.34632
ltoes -16.0058
332
root 7.64346 16.6092 -7.55882 66.3342 -80.6632 -79.5201
lowerback 22.9222 0.2083 7.12663
upperback 8.18678 1.34561 5.01044
thorax -3.69771 0.357485 1.03488
lowerneck -19.5526 13.7361 -4.82457
upperneck 15.5928 19.2108 4.15789
head 7.03429 9.32032 4.14859
rclavicle -1.23246e-014 -5.1684e-014
rhumerus -16.2957 -23.5068 -76.3018
rradius 25.8775
rwrist -16.7226
rhand -33.2188 19.5256
rfingers 7.12502
rthumb -6.42541 -10.3569
lclavicle -1.23246e-014 -5.1684e-014
lhumerus 22.5568 -24.6714 25.2201
lradius 22.4916
lwrist -21.04
lhand -16.922 1.90768
lfingers 7.12502
lthumb 9.31064 31.6821
rfemur -7.20108 0.805068 28.4331
rtibia 43.9948
rfoot -22.0522 -6.85089
rtoes -3.78622
lfemur -68.7396 16.6481 -13.4932
ltibia 24.7234
lfoot -8.57716 9.15095
ltoes -16.0331
333
root 7.62633 16.6436 -7.50838 63.2172 -80.4044 -75.834
lowerback 23.1613 0.243118 7.03022
upperback 8.26234 1.38378 5.06055
thorax -3.73822 0.370758 1.13432
lowerneck -19.6794 13.6425 -4.87623
upperneck 15.0558 19.1352 3.89054
head 6.90695 9.2732 4.0455
rclavicle 2.98177e-015 3.18055e-015
rhumerus -17.4094 -26.4593 -73.8296
rradius 24.9661
rwrist -15.748
rhand -33.3848 19.1683
rfingers 7.12502
rthumb -6.58569 -10.7093
lclavicle 2.98177e-015 3.18055e-015
lhumerus 21.6015 -25.1991 23.008
lradius 22.5032
lwrist -19.8848
lhand -16.4758 2.57803
lfingers 7.12502
lthumb 9.7411 32.3328
rfemur -7.43812 0.633638 28.2836
rtibia 43.4948
rfoot -21.82 -7.16185
rtoes -3.97108
lfemur -69.0286 16.6553 -13.4631
ltibia 24.7651
lfoot -8.47166 9.00911
ltoes -16.0355
334
root 7.60951 16.6794 -7.45626 60.2004 -80.0841 -72.2152
lowerback 23.4002 0.276095 6.93144
upperback 8.32212 1.42205 5.13164
thorax -3.79641 0.383486 1.25791
lowerneck -19.8004 13.5442 -4.93188
upperneck 14.5131 19.0528 3.62117
head 6.77701 9.22304 3.94145
rclavicle 2.04748e-014 6.52014e-014
rhumerus -18.6263 -29.4691 -71.1195
rradius 24.0844
rwrist -14.5097
rhand -33.6294 18.6403
rfingers 7.12502
rthumb -6.82178 -11.2298
lclavicle 2.04748e-014 6.52014e-014
lhumerus 20.5973 -25.9228 20.8089
lradius 22.5121
lwrist -18.8416
lhand -16.1924 3.10074
lfingers 7.12502
lthumb 10.0145 32.8425
rfemur -7.69409 0.472308 28.1533
rtibia 42.9633
rfoot -21.5638 -7.49972
rtoes -4.12987
lfemur -69.3073 16.6486 -13.4207
ltibia 24.8095
lfoot -8.34396 8.90779
ltoes -16.0424
335
root 7.59312 16.7165 -7.40235 57.3134 -79.7176 -68.7008
lowerback 23.6432 0.307356 6.81614
upperback 8.37026 1.45712 5.21783
thorax -3.87056 0.39405 1.40819
lowerneck -19.92 13.4483 -4.99836
upperneck 13.9715 18.9737 3.35809
head 6.64536 9.17495 3.84128
rclavicle -1.64991e-014 -2.3059e-014
rhumerus -19.9641 -32.4951 -68.1694
rradius 23.2781
rwrist -13.3041
rhand -33.8561 17.9791
rfingers 7.12502
rthumb -7.04065 -11.8838
lclavicle -1.64991e-014 -2.3059e-014
lhumerus 19.5153 -26.748 18.7028
lradius 22.5078
lwrist -18.0177
lhand -16.0236 3.4981
lfingers 7.12502
lthumb 10.1774 33.2319
rfemur -7.96052 0.32374 28.0255
rtibia 42.4
rfoot -21.2839 -7.86344
rtoes -4.2753
lfemur -69.564 16.6271 -13.3681
ltibia 24.8564
lfoot -8.20331 8.853
ltoes -16.0453
336
root 7.57608 16.7571 -7.34505 54.5404 -79.3584 -65.2923
lowerback 23.876 0.343482 6.67379
upperback 8.41756 1.49153 5.29264
thorax -3.94136 0.404819 1.56155
lowerneck -20.0377 13.3503 -5.07777
upperneck 13.4362 18.8907 3.11263
head 6.51258 9.1264 3.74823
rclavicle 2.16675e-014 6.99722e-014
rhumerus -21.4576 -35.5207 -64.9731
rradius 22.5921
rwrist -12.3874
rhand -33.9933 17.2407
rfingers 7.12502
rthumb -7.17314 -12.6178
lclavicle 2.16675e-014 6.99722e-014
lhumerus 18.3644 -27.6767 16.6944
lradius 22.5101
lwrist -17.3822
lhand -15.8465 3.87707
lfingers 7.12502
lthumb 10.3482 33.6025
rfemur -8.20362 0.171822 27.8319
rtibia 41.8007
rfoot -20.9949 -8.212
rtoes -4.41162
lfemur -69.7702 16.6063 -13.3481
ltibia 24.9211
lfoot -8.0723 8.85868
ltoes -16.1062
337
root 7.55941 16.7993 -7.28561 51.8993 -78.9721 -61.9937
lowerback 24.1071 0.380165 6.52108
upperback 8.45413 1.52587 5.36854
thorax -4.02358 0.415715 1.72215
lowerneck -20.1472 13.2514 -5.1641
upperneck 12.9019 18.8054 2.87332
head 6.37765 9.07752 3.65754
rclavicle 1.64991e-014 3.81667e-014
rhumerus -23.1322 -38.5207 -61.5192
rradius 22.0561
rwrist -11.8958
rhand -34.0121 16.4791
rfingers 7.12502
rthumb -7.19125 -13.3788
lclavicle 1.64991e-014 3.81667e-014
lhumerus 17.1351 -28.6063 14.8552
lradius 22.5095
lwrist -16.9901
lhand -15.6076 4.23991
lfingers 7.12502
lthumb 10.5787 33.9537
rfemur -8.44935 0.016421 27.6173
rtibia 41.1695
rfoot -20.6866 -8.56783
rtoes -4.54255
lfemur -69.9557 16.5731 -13.3235
ltibia 25.007
lfoot -7.94964 8.9255
ltoes -16.1573
338
root 7.54248 16.8439 -7.22313 49.3392 -78.6028 -58.7566
lowerback 24.3128 0.423559 6.34069
upperback 8.48892 1.56034 5.42503
thorax -4.09587 0.427845 1.87712
lowerneck -20.2643 13.1577 -5.24397
upperneck 12.392 18.7247 2.63911
head 6.25179 9.03096 3.57051
rclavicle -3.16068e-014 -4.21423e-014
rhumerus -25.0131 -41.4474 -57.8085
rradius 21.6867
rwrist -11.856
rhand -33.9475 15.6949
rfingers 7.12502
rthumb -7.12886 -14.165
lclavicle -3.16068e-014 -4.21423e-014
lhumerus 15.814 -29.4005 13.2664
lradius 22.4834
lwrist -16.9126
lhand -15.2675 4.59321
lfingers 7.12502
lthumb 10.9067 34.2899
rfemur -8.68726 -0.143406 27.3292
rtibia 40.5124
rfoot -20.3728 -8.90934
rtoes -4.64893
lfemur -70.1197 16.5669 -13.3756
ltibia 25.1145
lfoot -7.85556 9.00798
ltoes -16.2099
339
root 7.52523 16.8895 -7.15775 46.9814 -78.2097 -55.6932
lowerback 24.4969 0.465638 6.17867
upperback 8.51306 1.59666 5.47443
thorax -4.1683 0.441929 2.01351
lowerneck -20.3983 13.0644 -5.3142
upperneck 11.9196 18.6425 2.40749
head 6.14138 8.98295 3.48686
rclavicle 2.72335e-014 3.18055e-015
rhumerus -27.1247 -44.2523 -53.8348
rradius 21.4858
rwrist -12.2151
rhand -33.8268 14.8842
rfingers 7.12502
rthumb -7.01242 -14.9797
lclavicle 2.72335e-014 3.18055e-015
lhumerus 14.4134 -30.0746 11.9027
lradius 22.4455
lwrist -17.0385
lhand -14.805 4.97408
lfingers 7.12502
lthumb 11.3528 34.6468
rfemur -8.93895 -0.300646 27.027
rtibia 39.8403
rfoot -20.0491 -9.25987
rtoes -4.76664
lfemur -70.2705 16.5675 -13.4253
ltibia 25.229
lfoot -7.78113 9.1272
ltoes -16.2455
340
root 7.5087 16.9343 -7.09011 44.8415 -77.7767 -52.8119
lowerback 24.6756 0.509009 6.04079
upperback 8.51699 1.64283 5.52295
thorax -4.25947 0.46155 2.13266
lowerneck -20.5214 12.9637 -5.34746
upperneck 11.4464 18.5446 2.14045
head 6.03665 8.92566 3.38667
rclavicle -2.64384e-014 -2.14687e-014
rhumerus -29.5059 -46.9159 -49.575
rradius 21.4536
rwrist -12.8873
rhand -33.6737 14.0342
rfingers 7.12502
rthumb -6.86458 -15.8345
lclavicle -2.64384e-014 -2.14687e-014
lhumerus 12.9641 -30.6342 10.7459
lradius 22.3953
lwrist -17.2793
lhand -14.2609 5.38197
lfingers 7.12502
lthumb 11.8775 35.0251
rfemur -9.22567 -0.455454 26.7341
rtibia 39.1654
rfoot -19.7154 -9.63154
rtoes -4.8741
lfemur -70.4424 16.5967 -13.5078
ltibia 25.3458
lfoot -7.72041 9.22884
ltoes -16.2786
341
root 7.4923 16.9787 -7.01926 42.9267 -77.3242 -50.1337
lowerback 24.8534 0.551739 5.91908
upperback 8.50703 1.69367 5.56992
thorax -4.36494 0.483924 2.2397
lowerneck -20.6418 12.8577 -5.36174
upperneck 10.979 18.4375 1.84648
head 5.9381 8.86207 3.27609
rclavicle 2.20651e-014 -6.36111e-015
rhumerus -32.1327 -49.3537 -45.0635
rradius 21.583
rwrist -13.8299
rhand -33.5124 13.1413
rfingers 7.12502
rthumb -6.70892 -16.7324
lclavicle 2.20651e-014 -6.36111e-015
lhumerus 11.4698 -31.1556 9.7577
lradius 22.3333
lwrist -17.4592
lhand -13.6546 5.82187
lfingers 7.12502
lthumb 12.4621 35.4303
rfemur -9.53442 -0.607576 26.4342
rtibia 38.495
rfoot -19.3751 -10.0125
rtoes -4.99757
lfemur -70.5833 16.6107 -13.5383
ltibia 25.459
lfoot -7.68323 9.39452
ltoes -16.2514
342
root 7.4764 17.0224 -6.9459 41.1467 -76.8653 -47.5682
lowerback 25.0316 0.596785 5.78353
upperback 8.48339 1.74633 5.6135
thorax -4.48646 0.50757 2.35035
lowerneck -20.7494 12.7499 -5.35907
upperneck 10.4968 18.3233 1.53472
head 5.83608 8.79501 3.15623
rclavicle -7.7526e-015 1.59028e-014
rhumerus -34.9412 -51.4716 -40.3908
rradius 21.8648
rwrist -15.0004
rhand -33.4265 12.1768
rfingers 7.12502
rthumb -6.62598 -17.6995
lclavicle -7.7526e-015 1.59028e-014
lhumerus 9.94594 -31.7388 8.88704
lradius 22.2655
lwrist -17.4432
lhand -13.0538 6.25603
lfingers 7.12502
lthumb 13.0413 35.8283
rfemur -9.86798 -0.760412 26.1081
rtibia 37.8401
rfoot -19.0351 -10.4005
rtoes -5.13426
lfemur -70.7013 16.6253 -13.5686
ltibia 25.5648
lfoot -7.66285 9.57711
ltoes -16.2163
